<?xml version="1.0" encoding="UTF-8" standalone="no"?>
<!-- Created with Inkscape (http://www.inkscape.org/) -->

<svg
   width="534.55658"
   height="547.82159"
   viewBox="0 0 534.55658 547.82159"
   version="1.1"
   id="svg1"
   inkscape:version="1.3 (0e150ed6c4, 2023-07-21)"
   sodipodi:docname="Inkscape FavIcon.svg"
   xmlns:inkscape="http://www.inkscape.org/namespaces/inkscape"
   xmlns:sodipodi="http://sodipodi.sourceforge.net/DTD/sodipodi-0.dtd"
   xmlns="http://www.w3.org/2000/svg"
   xmlns:svg="http://www.w3.org/2000/svg">
  <sodipodi:namedview
     id="namedview1"
     pagecolor="#505050"
     bordercolor="#ffffff"
     borderopacity="1"
     inkscape:showpageshadow="0"
     inkscape:pageopacity="0"
     inkscape:pagecheckerboard="1"
     inkscape:deskcolor="#d1d1d1"
     inkscape:document-units="px"
     inkscape:zoom="1.0145833"
     inkscape:cx="1292.1561"
     inkscape:cy="323.28543"
     inkscape:window-width="1920"
     inkscape:window-height="1017"
     inkscape:window-x="1912"
     inkscape:window-y="-8"
     inkscape:window-maximized="1"
     inkscape:current-layer="layer1" />
  <defs
     id="defs1">
    <inkscape:path-effect
       effect="fillet_chamfer"
       id="path-effect7"
       is_visible="true"
       lpeversion="1"
       nodesatellites_param="F,0,0,1,0,12,0,1 @ F,0,0,1,0,12,0,1 @ F,0,0,1,0,12,0,1 @ F,0,0,1,0,12,0,1 @ F,0,0,1,0,12,0,1 @ F,0,0,1,0,12,0,1 @ F,0,0,1,0,12,0,1 @ F,0,0,1,0,12,0,1 @ F,0,0,1,0,12,0,1 @ F,0,0,1,0,12,0,1 @ F,0,0,1,0,12,0,1 @ F,0,0,1,0,12,0,1 @ F,0,0,1,0,12,0,1 @ F,0,0,1,0,12,0,1 @ F,0,0,1,0,12,0,1 @ F,0,0,1,0,12,0,1 @ F,0,0,1,0,12,0,1 @ F,0,0,1,0,12,0,1 @ F,0,0,1,0,12,0,1 @ F,0,0,1,0,12,0,1 @ F,0,0,1,0,12,0,1 @ F,0,0,1,0,12,0,1 @ F,0,0,1,0,12,0,1 | F,0,0,1,0,12,0,1 @ F,0,0,1,0,12,0,1 @ F,0,0,1,0,12,0,1 @ F,0,0,1,0,12,0,1 @ F,0,0,1,0,12,0,1 @ F,0,0,1,0,12,0,1 @ F,0,0,1,0,12,0,1 @ F,0,0,1,0,12,0,1"
       radius="12"
       unit="px"
       method="auto"
       mode="F"
       chamfer_steps="1"
       flexible="false"
       use_knot_distance="true"
       apply_no_radius="true"
       apply_with_radius="true"
       only_selected="false"
       hide_knots="false" />
  </defs>
  <g
     inkscape:label="Layer 1"
     inkscape:groupmode="layer"
     id="layer1"
     transform="translate(-920.76276,-90.353294)">
    <g
       id="g40"
       style="display:inline;stroke-width:1.0338"
       inkscape:label="favicon 03"
       transform="matrix(0.9672363,0,0,0.96737807,36.862543,-3.5205133)">
      <path
         id="path8"
         style="color:#000000;display:inline;fill:#ffffff;stroke:#000000;stroke-width:28.9463;stroke-linecap:round;stroke-linejoin:round;stroke-dasharray:none;paint-order:stroke fill markers"
         d="m 1031.0473,111.75404 a 24.81115,24.81115 0 0 0 -8.6123,0.30083 24.81115,24.81115 0 0 0 -11.4432,5.83285 24.81115,24.81115 0 0 0 -1.8356,35.03753 l 29.9763,33.29311 a 24.81115,24.81115 0 0 0 35.0406,1.83728 24.81115,24.81115 0 0 0 1.8376,-35.03954 l -29.9783,-33.29312 a 24.81115,24.81115 0 0 0 -14.9851,-7.96894 z m 318.2493,0 a 24.81115,24.81115 0 0 0 -14.9831,7.96894 l -29.9783,33.29312 a 24.81115,24.81115 0 0 0 1.8375,35.03954 24.81115,24.81115 0 0 0 35.0387,-1.83728 l 29.9762,-33.29311 a 24.81115,24.81115 0 0 0 -1.8355,-35.03753 24.81115,24.81115 0 0 0 -11.4433,-5.83285 24.81115,24.81115 0 0 0 -8.6122,-0.30083 z m -159.1237,72.88951 c -14.4968,0 -28.9955,2.04741 -41.3529,6.13975 -39.3718,13.03859 -70.4184,44.08498 -83.457,83.4569 -8.1957,24.74809 -8.1201,58.02179 0.1373,82.72602 3.5207,10.53304 8.3621,20.57894 14.4076,29.89516 10.0796,15.5329 21.9052,41.96967 21.9052,54.91244 v 20.40794 c 0,29.24721 24.064,53.31138 53.3111,53.31138 h 70.0954 c 29.2473,0 53.3112,-24.06417 53.3112,-53.31138 v -20.40794 c 0,-12.94277 11.8255,-39.37954 21.9052,-54.91244 6.0455,-9.31622 10.8889,-19.36212 14.4096,-29.89516 8.2574,-24.70423 8.331,-57.97793 0.1353,-82.72602 -13.0387,-39.37192 -44.0851,-70.41831 -83.4571,-83.4569 -12.3573,-4.09234 -26.8539,-6.13975 -41.3509,-6.13975 z m -221.55784,34.07649 a 24.81115,24.81115 0 0 0 -6.47585,0.1171 24.81115,24.81115 0 0 0 -19.40734,15.45939 24.81115,24.81115 0 0 0 14.01585,32.16854 l 41.6962,16.38813 a 24.81115,24.81115 0 0 0 32.16518,-14.01582 24.81115,24.81115 0 0 0 -14.0138,-32.16652 l -41.69421,-16.38813 a 24.81115,24.81115 0 0 0 -6.28603,-1.56269 z m 443.11574,0 a 24.81115,24.81115 0 0 0 -6.286,1.56269 l -41.6942,16.38813 a 24.81115,24.81115 0 0 0 -14.0158,32.16652 24.81115,24.81115 0 0 0 32.1672,14.01582 l 41.6962,-16.38813 a 24.81115,24.81115 0 0 0 14.0158,-32.16854 24.81115,24.81115 0 0 0 -19.4073,-15.45939 24.81115,24.81115 0 0 0 -6.4759,-0.1171 z m -417.09928,119.3222 -44.47676,5.36244 a 24.81115,24.81115 0 0 0 -21.6649,27.60159 24.81115,24.81115 0 0 0 27.6016,21.66374 l 44.47874,-5.36041 a 24.81115,24.81115 0 0 0 21.6649,-27.60159 24.81115,24.81115 0 0 0 -27.60358,-21.66577 z m 391.08078,0 a 24.81115,24.81115 0 0 0 -27.6015,21.66577 24.81115,24.81115 0 0 0 21.6649,27.60159 l 44.4787,5.36041 a 24.81115,24.81115 0 0 0 27.6016,-21.66374 24.81115,24.81115 0 0 0 -21.6649,-27.60159 z m -230.5881,214.31359 c -28.1558,10e-6 -46.303,32.57 -31.4887,56.5135 l 0.4947,0.79952 c 12.2037,22.50295 35.0816,37.31486 60.6634,39.15021 a 16.542429,16.542429 0 0 0 1.1853,0.0424 c 28.5661,0 55.1542,-14.81549 70.1843,-39.1078 l 0.5452,-0.88432 c 14.8142,-23.9435 -3.3328,-56.5135 -31.4888,-56.5135 z" />
      <path
         style="font-weight:bold;font-size:253.439px;line-height:1.25;font-family:Montserrat;-inkscape-font-specification:'Montserrat Bold';fill:#1a1a1a;stroke-width:1"
         d="m 1176.7278,344.09445 c 0.5949,-2.16 3.3534,-8.89605 7.2744,-14.223 0.7379,-1.00246 4.8282,-5.92885 9.6733,-10.44563 0.7312,-0.68162 5.3428,-4.80129 10.1759,-9.33578 0.2963,-0.27795 4.5682,-3.94527 7.8857,-9.37399 3.0413,-10.13756 3.0413,-10.13756 3.0413,-10.13756 -5.6173,-13.36359 -12.0816,-18.11166 -18.5181,-19.43994 -4.81,-0.99262 -14.3307,-1.04284 -20.7384,0.58119 -5.4009,1.36885 -14.3824,6.01059 -19.1501,10.58029 -3.5285,3.38191 -10.3473,4.03883 -16.0633,0.68479 l -9.9665,-5.84811 c -5.716,-3.35404 -7.4662,-10.66688 -2.9134,-15.47079 3.1179,-3.28974 6.591,-6.29291 10.4196,-9.00951 5.4,-3.83172 15.0405,-8.74397 21.3273,-10.8184 6.2978,-2.07809 13.1502,-3.47217 20.5572,-4.18226 6.5947,-0.63222 17.3737,-0.64107 23.9623,0.0471 3.46,0.36138 6.7864,0.88602 9.9793,1.57392 6.4722,1.39441 16.6669,5.11439 22.2779,8.61939 1.1032,0.68917 2.1653,1.4113 3.1861,2.1664 5.3118,3.92901 12.1951,12.53688 14.4501,18.73679 0.392,1.07782 0.7379,2.18219 1.0377,3.3131 1.6937,6.38814 1.691,17.34407 0.1736,23.78027 -0.7416,3.14586 -3.5913,10.74873 -7.4866,16.0892 -1.1109,1.52302 -5.5925,6.80479 -10.4874,11.2669 -1.1054,1.00764 -6.0211,5.39028 -10.8473,9.93215 -0.7279,0.68504 -5.4081,4.85803 -9.0847,10.35557 -0.1904,0.28466 -3.2827,5.43223 -3.3792,11.98129 -0,0.24743 -5.3759,0.44793 -12.0033,0.44793 h -14.2693 c -6.6274,0 -12.2685,-5.50098 -10.5141,-11.8713 z m 6.1657,72.91914 c -3.5855,-1.80633 -10.235,-8.14593 -11.9445,-14.46972 -0.8759,-3.24035 -1.1382,-11.90101 2.302,-17.46393 1.7112,-2.76708 7.7891,-8.6734 14.1401,-10.2811 3.8343,-0.9706 12.8427,-1.26774 18.7592,1.59113 3.5655,1.72286 10.352,7.94605 11.9761,14.2753 0.809,3.15272 0.9856,11.67723 -2.3742,17.29424 -1.7237,2.88178 -7.6672,9.08392 -13.9959,10.74179 -3.9034,1.02251 -12.9984,1.26661 -18.8628,-1.68771 z"
         id="text39"
         transform="matrix(1.0338735,0,0,1.033722,-38.111207,3.6392321)"
         aria-label="?"
         inkscape:original-d="m 1175.2419,355.96575 q 0,-8.87037 2.7878,-15.71322 3.0413,-6.84285 7.3497,-12.16507 4.5619,-5.32222 9.6307,-9.88412 5.0688,-4.56191 9.3773,-8.61693 4.5619,-4.30846 7.3497,-8.87036 3.0413,-4.56191 3.0413,-10.13756 0,-9.12381 -7.6032,-14.69947 -7.3497,-5.57565 -19.7683,-5.57565 -11.9116,0 -21.2888,5.06878 -9.3773,4.81534 -15.4598,13.6857 l -30.6661,-17.99417 q 10.1375,-15.45978 28.1317,-24.58358 17.9942,-9.37724 43.5915,-9.37724 19.0079,0 33.4539,5.57566 14.4461,5.32221 22.5561,15.71321 8.3635,10.391 8.3635,25.59734 0,9.88412 -3.0413,17.48729 -3.0412,7.60317 -7.8566,13.17883 -4.8153,5.57566 -10.391,10.391 -5.3222,4.81534 -10.1375,9.37724 -4.8154,4.5619 -8.1101,9.63068 -3.0412,5.06878 -3.0412,11.91164 z m 19.2613,63.61318 q -10.6444,0 -17.4873,-6.84285 -6.8428,-6.84285 -6.8428,-16.22009 0,-9.63069 6.8428,-15.96666 6.8429,-6.58942 17.4873,-6.58942 10.8979,0 17.4873,6.58942 6.8429,6.33597 6.8429,15.96666 0,9.37724 -6.8429,16.22009 -6.5894,6.84285 -17.4873,6.84285 z"
         inkscape:path-effect="#path-effect7" />
    </g>
  </g>
</svg>
